# xmcd
#
# Track frame offsets:
#	150
#	17329
#	36301
#	52636
#	65739
#	79239
#	108627
#	128645
#	149971
#	166208
#	184791
#	197071
#	217129
#	241485
#
# Disc length: 3498 seconds
#
# Revision: 0
# Processed by: cddbd v1.5.2PL0 Copyright (c) Steve Scherf et al.
# Submitted via: dBpowerAMP V4.0
#
DISCID=ce0da80e
DTITLE=Skyla Burrell Blues Band - Livin` Day to Day
DYEAR=1900
DGENRE=
TTITLE0=Little Bit of Your Love
TTITLE1=Too Much
TTITLE2=Dirt Poor
TTITLE3=Rockin` in Memphis
TTITLE4=Fly Cat Daddy
TTITLE5=I`m Going Down
TTITLE6=Livin` Day to Day
TTITLE7=Play Me Like a Fool
TTITLE8=Low Down Dirty Game
TTITLE9=Come In
TTITLE10=Two Time Dirty Dog
TTITLE11=Need Your Love Baby
TTITLE12=Don`t Let Me Go
TTITLE13=Shot in the Dark
EXTD=Skyla Burrell Blues Band
EXTT0=
EXTT1=
EXTT2=
EXTT3=
EXTT4=
EXTT5=
EXTT6=
EXTT7=
EXTT8=
EXTT9=
EXTT10=
EXTT11=
EXTT12=
EXTT13=
PLAYORDER=
